<svg xmlns="http://www.w3.org/2000/svg" viewBox="0 0 24 24"><path d="M24 8.182l-.018-.087-.017-.05c-.01-.024-.018-.05-.03-.075-.003-.018-.015-.034-.02-.05l-.035-.067-.03-.05-.044-.06-.046-.045-.06-.045-.046-.03-.06-.044-.044-.04-.015-.02L12.58.19c-.347-.232-.796-.232-1.142 0L.453 7.502l-.015.015-.044.035-.06.05-.038.04-.05.056-.037.045-.05.06c-.02.017-.03.03-.03.046l-.05.06-.02.06c-.02.01-.02.04-.03.07l-.01.05C0 8.12 0 8.15 0 8.18v7.497c0 .044.003.09.01.135l.01.046c.005.03.01.06.02.086l.015.05c.01.027.016.053.027.075l.022.05c0 .01.015.04.03.06l.03.04c.015.01.03.04.045.06l.03.04.04.04c.01.013.01.03.03.03l.06.042.04.03.01.014 10.97 7.33c.164.12.375.163.57.163s.39-.06.57-.18l10.99-7.28.014-.01.046-.037.06-.043.048-.036.052-.058.033-.045.04-.06.03-.05.03-.07.016-.052.03-.077.015-.045.03-.08v-7.5c0-.05 0-.095-.016-.14l-.014-.045.044.003zm-11.99 6.28l-3.65-2.44 3.65-2.442 3.65 2.44-3.65 2.44zm-1.216-6.18l-4.473 3.003-3.612-2.415L12.183 2.98l4.473 2.99-3.612 2.414zm-4.962 4.45l-3.36-2.24v-4.48l3.36 2.24v4.48zm1.188.792l4.473-3.003 3.612 2.415L12.183 21l-4.473-2.99 3.612-2.414zm4.962-1.11l3.36-2.24v4.48l-3.36 2.24v-4.48z"/></svg>