<svg xmlns="http://www.w3.org/2000/svg" viewBox="0 0 24 24"><path d="M21.484 7.125h-18.97C1.675 7.125 1 7.8 1 8.637v10.504c0 .836.675 1.512 1.514 1.512H12.5l1.143-2.625h-2.028l3.013-6.922 3.013 6.922h-2.028l1.143 2.625h4.728c.84 0 1.516-.676 1.516-1.512V8.637c0-.837-.676-1.512-1.516-1.512zM8.878 16.452H7.364L5.85 12.267l-1.514 4.185H2.822l2.271-6.265-2.064-5.73h1.514l1.514 4.185 1.514-4.185h1.514L6.815 10.19l2.063 6.263zm7.014 0h-1.514l-1.514-4.185-1.514 4.185h-1.514l2.271-6.265-2.064-5.73h1.514l1.514 4.185 1.514-4.185h1.514l-2.271 5.73 2.064 6.265z"/></svg>